<svg width="104" height="88" viewBox="0 0 104 88" fill="none" xmlns="http://www.w3.org/2000/svg">
<path d="M16 33V66.6167L45 87.0001L88 61.0001V37.5001L45 64.0001" stroke="#424242"/>
<path d="M45 64V87" stroke="#424242"/>
<path d="M12 31L60.0001 1H76.5L92.0001 31M12 31V33.5L28.5 32L45.0001 64L92.0001 35V31M12 31L30 29L46 60L92.0001 31" stroke="#424242"/>
<path d="M30 29L76 1" stroke="#424242"/>
<path d="M79.5 7L34 36" stroke="#424242" stroke-width="0.3"/>
<path d="M71 1L24.5 29.5" stroke="#424242" stroke-width="0.3"/>
<path d="M65.5 1L19 30" stroke="#424242" stroke-width="0.3"/>
<path d="M82.5 13.5L37 42.5" stroke="#424242" stroke-width="0.3"/>
<path d="M86 19L40 48" stroke="#424242" stroke-width="0.3"/>
<path d="M89 25L42.5 54" stroke="#424242" stroke-width="0.3"/>
</svg>
