<svg width="104" height="88" viewBox="0 0 104 88" fill="none" xmlns="http://www.w3.org/2000/svg">
<path d="M16 37V66.6167L45 87.0001L88 61.0001V37.5001L45 64.0001" stroke="#424242"/>
<path d="M45 64V87" stroke="#424242"/>
<path d="M12.5 36L68 1H76.5L88 13L92.0001 31M12.5 36V39.2567L21.5 33.5L29 32L39.5 43.5L45.0001 64L92.0001 35V31M12.5 36L21.2214 30.5L30 29L42.5 42L46.5 59.5L92.0001 31" stroke="#424242"/>
<path d="M30 29L76 1" stroke="#424242"/>
<path d="M42.5 42L88 13" stroke="#424242"/>
<path d="M12.5 39.5L16 41" stroke="#424242"/>
<path d="M80 4.5L34 33" stroke="#424242" stroke-width="0.3"/>
<path d="M83.5 9L38 38" stroke="#424242" stroke-width="0.3"/>
<path d="M89.5 19L44 48" stroke="#424242" stroke-width="0.3"/>
<path d="M90.5 25L45 54" stroke="#424242" stroke-width="0.3"/>
</svg>
