<svg width="264" height="216" viewBox="0 0 264 216" fill="none" xmlns="http://www.w3.org/2000/svg">
<path d="M223.385 149.727V92.0455L114.231 157.091L40.6155 94.5V164.455L114.231 213.545L223.385 149.727Z" stroke="#424242"/>
<path d="M114.231 157.091V213.545" stroke="#424242"/>
<path d="M30.4614 76.091L152.308 2.45459L233.539 76.091M30.4614 76.091L114.231 147.273L233.539 76.091M30.4614 76.091V85.9091L114.231 157.091L233.539 85.9091V76.091" stroke="#424242"/>
<path d="M165 14.7273L44.4231 88.3637" stroke="#424242" stroke-width="0.3"/>
<path d="M177.692 27L58.3845 99.4091" stroke="#424242" stroke-width="0.3"/>
<path d="M191.654 38.0454L72.3462 111.682" stroke="#424242" stroke-width="0.3"/>
<path d="M204.346 50.3182L85.0386 121.5" stroke="#424242" stroke-width="0.3"/>
<path d="M219.577 62.5909L100.269 135" stroke="#424242" stroke-width="0.3"/>
<path d="M152 2.5L31 76" stroke="#004394" stroke-width="2"/>
<path d="M233.5 76L114 147.5" stroke="#004394" stroke-width="2"/>
</svg>
