<svg width="104" height="88" viewBox="0 0 104 88" fill="none" xmlns="http://www.w3.org/2000/svg">
<path d="M16 33V66.6167L45 87.0001L88 61.0001V37.5001L45 64.0001" stroke="#424242"/>
<path d="M45 64V87" stroke="#424242"/>
<path d="M30 29L76 1" stroke="#424242"/>
<path d="M71 1L24.5 29.5" stroke="#424242" stroke-width="0.3"/>
<path d="M65.5 1L19 30" stroke="#424242" stroke-width="0.3"/>
<path d="M58.7773 52.1029L65 23" stroke="#424242"/>
<path d="M52.5 15.5L64.9998 23" stroke="#424242"/>
<path d="M52.5002 15.5L59 52" stroke="#424242"/>
<path d="M79 39.5L64.5 22.5" stroke="#424242"/>
<path fill-rule="evenodd" clip-rule="evenodd" d="M53.5555 23.3583L33.9194 35.8735L34.0807 36.1265L53.6177 23.6743L53.5555 23.3583ZM59.318 19.6855L59.6094 19.8555L79.5807 7.12652L79.4194 6.87354L59.318 19.6855ZM55.0276 30.8321L36.9194 42.3735L37.0807 42.6265L55.0898 31.1482L55.0276 30.8321ZM66.0087 24.1888L65.8128 23.958L82.4194 13.3735L82.5807 13.6265L66.0087 24.1888ZM56.3446 37.5185L39.9201 47.8731L40.08 48.1269L56.4067 37.834L56.3446 37.5185ZM70.2054 29.1349L70.0093 28.9038L85.9201 18.8731L86.08 19.1269L70.2054 29.1349ZM57.6902 44.3498L42.4207 53.8727L42.5794 54.1273L57.7522 44.6647L57.6902 44.3498ZM74.513 34.2117L74.3168 33.9805L88.9207 24.8727L89.0794 25.1273L74.513 34.2117Z" fill="#424242"/>
<path d="M66 28L77 40.5L61.2153 50.5L66 28Z" stroke="#424242"/>
<path fill-rule="evenodd" clip-rule="evenodd" d="M59.8567 0.5L11.5 30.7229V34.0475L28.2099 32.5284L44.8032 64.709L92.5001 35.279V30.8785L76.8045 0.5H59.8567ZM14.1263 30.2607L60.1435 1.5H76.1955L91.3453 30.8218L78.0951 39.1751L78.6045 40.0361L91.5001 31.9063V34.721L45.1971 63.291L28.7901 31.4716L12.5 32.9525V31.4475L29.7134 29.5349L45.8056 60.7136L59.9866 51.7734L59.4773 50.9124L46.1944 59.2864L30.2866 28.4651L14.1263 30.2607Z" fill="#424242"/>
</svg>
